<svg width="24" height="24" viewBox="0 0 24 24" fill="none" xmlns="http://www.w3.org/2000/svg">
<path d="M12 2.25C8.27344 2.25 5.25 5.12766 5.25 8.67188C5.25 12.75 9.75 19.2127 11.4023 21.4448C11.4709 21.5391 11.5608 21.6157 11.6647 21.6686C11.7686 21.7215 11.8835 21.749 12 21.749C12.1165 21.749 12.2314 21.7215 12.3353 21.6686C12.4392 21.6157 12.5291 21.5391 12.5977 21.4448C14.25 19.2136 18.75 12.7533 18.75 8.67188C18.75 5.12766 15.7266 2.25 12 2.25Z" stroke="url(#paint0_linear_1003_24139)" stroke-linecap="round" stroke-linejoin="round"/>
<path d="M12 11.25C13.2426 11.25 14.25 10.2426 14.25 9C14.25 7.75736 13.2426 6.75 12 6.75C10.7574 6.75 9.75 7.75736 9.75 9C9.75 10.2426 10.7574 11.25 12 11.25Z" stroke="url(#paint1_linear_1003_24139)" stroke-linecap="round" stroke-linejoin="round"/>
<defs>
<linearGradient id="paint0_linear_1003_24139" x1="5.25" y1="11.9995" x2="18.75" y2="11.9995" gradientUnits="userSpaceOnUse">
<stop stop-color="#AD46FF" stop-opacity="0.5"/>
<stop offset="1" stop-color="#F6339A" stop-opacity="0.5"/>
</linearGradient>
<linearGradient id="paint1_linear_1003_24139" x1="9.75" y1="9" x2="14.25" y2="9" gradientUnits="userSpaceOnUse">
<stop stop-color="#AD46FF" stop-opacity="0.5"/>
<stop offset="1" stop-color="#F6339A" stop-opacity="0.5"/>
</linearGradient>
</defs>
</svg>
