<svg width="164" height="57" viewBox="0 0 164 57" fill="none" xmlns="http://www.w3.org/2000/svg">
<path d="M20.7477 0.00155616C42.111 0.0498237 63.4744 0.0965339 84.8378 0.144801C85.4431 0.188398 86.1844 0.298946 87.0007 0.555854C88.4927 1.02607 89.5687 1.77656 90.2287 2.32774C93.5802 4.45774 96.9317 6.58618 100.283 8.71618C100.388 8.79248 100.989 9.25024 101.089 10.0817C101.204 11.0455 100.551 11.6916 100.476 11.7633C98.3158 14.2187 96.156 16.6757 93.9962 19.1311C93.5724 19.444 92.9437 19.8302 92.1148 20.0995C90.8074 20.5262 89.6672 20.4452 89.037 20.3518C100.358 26.0442 111.68 31.7367 122.999 37.4307L100.313 37.5677C89.123 30.7511 77.933 23.9345 66.7446 17.1178C72.4561 17.0073 78.1692 16.8968 83.8807 16.7862C85.0458 17.4526 86.2094 18.1175 87.3745 18.7839C88.9009 19.4347 90.6338 19.2105 91.8255 18.1937C92.914 17.2642 93.5349 15.6854 93.1564 14.3012C93.1142 14.1455 92.9562 13.6146 92.4902 13.0587C90.8965 11.1529 87.5325 11.1545 87.5325 11.1545H38.5969C32.6461 7.43632 26.6969 3.71816 20.7461 0L20.7477 0.00155616Z" fill="url(#paint0_linear_848_1882)"/>
<path d="M0 41.1738H5.42999C8.73928 41.1738 10.5566 43.2415 10.5566 46.0192C10.5566 47.6992 9.47433 49.4867 7.76651 50.0457L11.0117 55.7521H7.89632L3.70028 48.1928H5.32208C6.87976 48.1928 7.74462 47.2243 7.74462 46.0176C7.74462 44.811 6.81408 43.7989 5.42999 43.7989H2.81196V55.7506H0V41.1722V41.1738Z" fill="#258CB9"/>
<path d="M12.5898 41.1738H21.8046V43.8005H15.4018V47.1169H21.4589V49.6362H15.4018V53.1254H22.194L21.4589 55.7521H12.5898V41.1738Z" fill="#258CB9"/>
<path d="M26.9528 43.8005H22.8428V41.1738H33.8748V43.8005H29.7429V55.7521H26.9528V43.8005Z" fill="#258CB9"/>
<path d="M35.3242 55.7521V41.1738H38.1362V47.0951H44.9065V41.1738H47.7184V55.7521H44.9065V49.7218H38.1362V55.7521H35.3242Z" fill="#258CB9"/>
<path d="M50.0117 41.1738H52.8237V55.7521H50.0117V41.1738Z" fill="#258CB9"/>
<path d="M66.4939 55.8175L57.8844 46.8584V55.7521H55.1162V41.152H56.089L64.7407 50.1531V41.1738H67.4885V55.8175H66.4939Z" fill="#258CB9"/>
<path d="M72.6586 48.5821V55.7537H69.8467V41.1753H72.6586V48.1959L78.586 41.1753H81.8311L75.7959 48.2816L82.0251 55.7537H78.6297L72.6602 48.5821H72.6586Z" fill="#258CB9"/>
<path d="M86.6338 48.4528C86.6338 44.21 89.9431 41.1738 94.4863 41.1738H98.0114V43.8005H94.5942C91.6744 43.8005 89.5114 45.6315 89.5114 48.4528C89.5114 51.2741 91.6744 53.1254 94.5942 53.1254H95.395V47.9779H98.2069V55.7521H94.4863C89.9228 55.7521 86.6338 52.7377 86.6338 48.4513V48.4528Z" fill="#258CB9"/>
<path d="M100.369 41.1738H105.799C109.108 41.1738 110.926 43.2415 110.926 46.0192C110.926 47.6992 109.843 49.4867 108.136 50.0457L111.381 55.7521H108.265L104.069 48.1928H105.691C107.249 48.1928 108.114 47.2243 108.114 46.0176C108.114 44.811 107.183 43.7989 105.799 43.7989H103.183V55.7506H100.371V41.1722L100.369 41.1738Z" fill="#258CB9"/>
<path d="M112.201 48.4528C112.201 44.1461 115.403 40.8733 119.88 40.8733C124.358 40.8733 127.537 44.1243 127.537 48.4528C127.537 52.7813 124.314 56.0542 119.88 56.0542C115.446 56.0542 112.201 52.7813 112.201 48.4528ZM119.88 53.4275C122.562 53.4275 124.661 51.3816 124.661 48.4528C124.661 45.5241 122.562 43.4999 119.88 43.4999C117.198 43.4999 115.079 45.5459 115.079 48.4528C115.079 51.3598 117.156 53.4275 119.88 53.4275Z" fill="#258CB9"/>
<path d="M129.183 49.7654V41.1738H131.973V49.7451C131.973 51.8767 133.335 53.3637 135.456 53.3637C137.577 53.3637 138.873 51.8783 138.873 49.7451V41.1738H141.663V49.7654C141.663 53.4477 139.219 56.0106 135.455 56.0106C131.69 56.0106 129.182 53.4477 129.182 49.7654H129.183Z" fill="#258CB9"/>
<path d="M143.87 41.1738H149.126C152.48 41.1738 154.75 43.3271 154.75 46.3213C154.75 49.3154 152.48 51.447 149.126 51.447H148.563L147.828 48.8203H149.126C150.9 48.8203 151.938 47.7864 151.938 46.3228C151.938 44.8592 150.9 43.8036 149.126 43.8036H146.682V55.7552H143.87V41.1769V41.1738Z" fill="#258CB9"/>
<path d="M154.945 53.1254H157.152C158.104 53.1254 160.635 52.7159 160.635 50.4116C160.635 49.3559 160.181 48.4731 158.386 46.8366C156.245 44.8561 155.141 43.542 155.4 41.1722H158.494C158.212 42.7448 158.84 43.433 160.591 45.0694C162.646 47.0079 163.597 48.5369 163.597 50.3462C163.597 53.6844 161.11 55.7521 157.15 55.7521H155.68L154.945 53.1254Z" fill="#258CB9"/>
<defs>
<linearGradient id="paint0_linear_848_1882" x1="35.7469" y1="-0.335101" x2="90.6022" y2="17.7033" gradientUnits="userSpaceOnUse">
<stop stop-color="#258CB9"/>
<stop offset="1" stop-color="#50274D"/>
</linearGradient>
</defs>
</svg>
