<svg width="48" height="56" viewBox="0 0 48 56" fill="none" xmlns="http://www.w3.org/2000/svg">
<path d="M32.5916 18.3036C32.5916 13.7176 28.8774 10 24.2958 10C19.7142 10 16 13.7176 16 18.3036V27.4107C16 31.9966 19.7142 35.7143 24.2958 35.7143C28.8774 35.7143 32.5916 31.9966 32.5916 27.4107V18.3036Z" stroke="white" stroke-width="2.67857"/>
<path d="M25.3664 15.3571C25.3664 14.7654 24.8872 14.2857 24.296 14.2857C23.7048 14.2857 23.2256 14.7654 23.2256 15.3571V18.5714C23.2256 19.1632 23.7048 19.6428 24.296 19.6428C24.8872 19.6428 25.3664 19.1632 25.3664 18.5714V15.3571Z" fill="white"/>
<path d="M27.4991 42.5407C27.9171 42.1222 27.9171 41.4439 27.4991 41.0254C27.0811 40.607 26.4033 40.607 25.9853 41.0254L23.7146 43.2983C23.2965 43.7167 23.2965 44.3951 23.7146 44.8135C24.1326 45.2319 24.8104 45.2319 25.2284 44.8135L27.4991 42.5407Z" fill="white"/>
<path d="M21.3056 42.5407C20.8876 42.1222 20.8876 41.4439 21.3056 41.0254C21.7236 40.607 22.4014 40.607 22.8194 41.0254L25.0901 43.2983C25.5081 43.7167 25.5081 44.3951 25.0901 44.8135C24.6721 45.2319 23.9943 45.2319 23.5763 44.8135L21.3056 42.5407Z" fill="white"/>
</svg>
