<svg width="42" height="52" viewBox="0 0 42 52" fill="none" xmlns="http://www.w3.org/2000/svg">
<path d="M19.6235 42.0226C16.8825 42.0226 14.4244 41.9686 11.9662 42.0428C10.3499 42.0899 9.75727 41.4059 9.81452 39.8323C9.8886 37.8105 9.76402 35.7888 9.85493 33.767C9.91555 32.473 9.41381 32.1159 8.19484 32.1664C6.17445 32.2473 4.15406 32.1125 2.13367 32.2102C0.480319 32.2911 -0.0382434 31.5767 0.00216434 30.0132C0.072878 27.3782 0.00216434 24.7398 0.00216434 22.1013C0.00216434 19.992 0.254712 19.7426 2.30541 19.7426C4.3561 19.7426 6.34619 19.7089 8.36658 19.7595C9.44412 19.7864 9.87177 19.4057 9.83136 18.2937C9.76401 16.2719 9.80442 14.2501 9.81116 12.2284C9.81789 10.2066 10.195 9.84267 12.1413 9.82582C14.5456 9.8056 16.9499 9.82582 19.5966 9.82582C19.5966 7.2649 19.5966 4.81856 19.5966 2.37221C19.5966 0.44142 20.0209 0.0134785 21.9537 0.0134785C24.5914 -0.00449283 27.228 -0.00449283 29.8635 0.0134785C31.7728 0.0134785 32.1903 0.464999 32.2004 2.42612C32.2004 4.82866 32.2004 7.23121 32.2004 9.89321C34.7125 9.89321 37.0527 9.89321 39.3964 9.89321C41.74 9.89321 41.996 10.1762 41.9993 12.5114C41.9993 15.1498 41.9657 17.7882 41.9993 20.4267C42.0229 21.8587 41.4269 22.4484 39.9789 22.4248C37.2312 22.3709 34.4801 22.4248 31.7324 22.4248C29.648 22.4248 29.3753 22.1519 29.3753 20.1133C29.3753 18.0747 29.3349 15.9585 29.3753 13.8828C29.3955 12.936 29.0385 12.5855 28.1058 12.6192C26.6477 12.6731 25.1863 12.6832 23.7283 12.6192C22.6036 12.5721 22.2567 13.0741 22.2736 14.1221C22.3106 16.1978 22.2365 18.2768 22.2736 20.3525C22.3073 21.825 21.782 22.5192 20.2061 22.4518C18.0813 22.3608 15.943 22.472 13.8082 22.4215C12.798 22.3979 12.3905 22.7854 12.4208 23.7929C12.4646 25.3092 12.4545 26.8256 12.4208 28.3419C12.4006 29.2753 12.7946 29.6392 13.7273 29.6223C15.8016 29.5853 17.8792 29.6223 19.9535 29.6223C22.0278 29.6223 22.2298 29.8515 22.2433 31.9811C22.2433 33.9456 22.2837 35.9101 22.2433 37.8745C22.213 38.9832 22.516 39.5189 23.7552 39.4549C25.5365 39.3606 27.3246 39.4313 29.3584 39.4313C29.3584 36.8974 29.3584 34.5083 29.3584 32.1159C29.3584 29.8919 29.6211 29.6392 31.894 29.6358C34.5879 29.6358 37.2817 29.6729 39.9756 29.6358C41.4067 29.6089 42.0128 30.1884 41.996 31.634C41.9454 34.4948 41.9623 37.3624 41.996 40.2232C41.996 41.4902 41.4538 42.0697 40.1742 42.0563C37.9888 42.0327 35.7967 42.1001 33.6147 42.0563C32.5035 42.0293 32.1365 42.464 32.1668 43.5456C32.2274 45.6213 32.1398 47.7004 32.1971 49.7761C32.2408 51.2519 31.6314 52 30.1497 52C27.2875 52 24.4253 52 21.5665 52C20.1926 52 19.5461 51.3463 19.5797 49.9075C19.6639 47.3365 19.6235 44.8193 19.6235 42.0226ZM9.83136 26.064C9.83136 22.4012 9.83136 22.4012 6.25863 22.4113C2.68591 22.4215 2.69265 22.4113 2.69265 25.9292C2.69265 29.5886 2.69265 29.5887 6.29231 29.5887C9.82799 29.5887 9.82799 29.5887 9.83136 26.064ZM19.5225 32.1967C17.4112 32.1967 15.5154 32.1563 13.6263 32.2304C13.2492 32.2304 12.5825 32.6887 12.569 32.9549C12.4814 35.0508 12.5218 37.1535 12.5218 39.2325H19.5225V32.1967ZM19.5225 12.7506C12.5757 11.9992 12.1986 12.3059 12.4949 18.2903C12.4949 18.5127 12.441 18.7924 12.5488 18.9642C12.7475 19.254 13.0438 19.682 13.3064 19.6887C15.3571 19.7494 17.4112 19.7224 19.5225 19.7224V12.7506ZM32.2274 39.2932H39.2415C39.2415 37.1568 39.292 35.0946 39.191 33.0425C39.191 32.7393 38.4805 32.2473 38.0798 32.2237C36.5173 32.1293 34.9482 32.2237 33.3824 32.1799C32.517 32.1597 32.1836 32.5169 32.1971 33.3727C32.2442 35.2732 32.2206 37.1737 32.2206 39.2932H32.2274ZM29.4056 49.1662C29.4056 46.9591 29.4561 45.0047 29.3618 43.057C29.3011 42.8262 29.1822 42.6149 29.0165 42.4432C28.8508 42.2715 28.6439 42.1453 28.4156 42.0765C26.7392 41.972 25.0579 41.972 23.3814 42.0765C23.1443 42.1407 22.9273 42.2641 22.7506 42.4349C22.574 42.6058 22.4435 42.8187 22.3712 43.0537C22.256 44.7365 22.256 46.4253 22.3712 48.1081C22.3982 48.4889 23.0716 49.119 23.4757 49.119C25.3446 49.2268 27.2404 49.1662 29.3988 49.1662H29.4056ZM39.2886 16.2281C39.2886 12.5889 39.2886 12.5889 35.6385 12.5956C32.2206 12.5956 32.2206 12.5956 32.2173 16.1034C32.2173 19.7426 32.2173 19.7729 35.8439 19.7325C39.6658 19.7056 39.2415 20.43 39.2886 16.2281ZM29.3854 9.82582C29.3854 7.64904 29.4426 5.69803 29.3315 3.7605C29.3146 3.42353 28.6109 2.86755 28.19 2.83722C26.6915 2.72266 25.1762 2.83723 23.6677 2.77995C22.7551 2.75636 22.3207 3.1169 22.3207 4.03681C22.3409 5.60031 22.25 7.17055 22.3712 8.72732C22.4438 8.97831 22.5789 9.20675 22.7639 9.39123C22.9488 9.5757 23.1775 9.71016 23.4286 9.78201C25.3277 9.90332 27.2235 9.84266 29.3854 9.84266V9.82582Z" fill="#00B4FF"/>
</svg>
