<svg width="73" height="116" viewBox="0 0 73 116" fill="none" xmlns="http://www.w3.org/2000/svg">
<path d="M30.5654 0.5L30.4561 1.09082C29.3388 7.12442 30.0272 11.4034 32.6992 15.751C35.0641 19.5987 38.9872 23.5122 44.6748 28.7148L47.2207 31.0273L47.2227 31.0293C63.8303 46.1737 71.6396 58.2256 71.6396 72.5566C71.6396 85.7161 66.5629 96.4047 57.4277 103.793C48.3046 111.171 35.1787 115.224 19.125 115.224H6.88672L6.78223 114.862L0.851562 94.374L0.666992 93.7354H19.1367C22.932 93.7354 29.8735 92.9431 35.8457 89.9443C41.794 86.9576 46.7391 81.8127 46.7393 73.0674C46.7393 69.0421 45.8494 65.3538 43.1748 61.0889C40.4878 56.8043 35.9945 51.9296 28.7627 45.5576L28.7598 45.5557C20.1242 37.8334 13.5254 31.3644 9.35742 24.4893C5.17309 17.587 3.4475 10.2912 4.50684 0.943359L4.55762 0.5H30.5654Z" stroke="url(#paint0_linear_2165_16237)"/>
<defs>
<linearGradient id="paint0_linear_2165_16237" x1="1.33203" y1="57.8617" x2="71.1392" y2="57.8617" gradientUnits="userSpaceOnUse">
<stop stop-color="#AD46FF" stop-opacity="0.5"/>
<stop offset="1" stop-color="#F6339A" stop-opacity="0.5"/>
</linearGradient>
</defs>
</svg>
