<svg width="92" height="116" viewBox="0 0 92 116" fill="none" xmlns="http://www.w3.org/2000/svg">
<path d="M44.8125 0.499573C58.2646 0.499573 68.7397 4.56428 75.8545 11.4117C82.9699 18.2598 86.6768 27.8462 86.6768 38.7945C86.6767 51.9032 78.0753 65.8408 64.4102 70.481L90.2803 114.458L90.7236 115.211H64.4229L64.2783 114.961L30.4229 55.9976L29.9922 55.2486H43.9414C50.1248 55.2486 54.8826 53.3913 58.0889 50.4273C61.2936 47.4646 62.9883 43.3601 62.9883 38.7818C62.988 29.6638 55.722 21.9761 44.8125 21.9761H24.1885V115.199H0.5V0.987854H1V0.499573H44.8125Z" stroke="url(#paint0_linear_2158_421)"/>
<defs>
<linearGradient id="paint0_linear_2158_421" x1="1" y1="57.8495" x2="89.849" y2="57.8495" gradientUnits="userSpaceOnUse">
<stop stop-color="#AD46FF" stop-opacity="0.5"/>
<stop offset="1" stop-color="#F6339A" stop-opacity="0.5"/>
</linearGradient>
</defs>
</svg>
