<svg width="90" height="116" viewBox="0 0 90 116" fill="none" xmlns="http://www.w3.org/2000/svg">
<path d="M43.4121 0.5L44.6836 0.512695C57.7557 0.767821 68.7633 4.95724 76.5791 11.9443C84.6508 19.1603 89.289 29.3351 89.2891 41.1504C89.2891 52.966 84.6506 63.0989 76.5781 70.2725C68.5098 77.4423 57.041 81.6308 43.4121 81.6309H38.4932L38.3887 81.2695L32.458 60.7822L32.2725 60.1426H43.4121C50.4748 60.1425 56.0195 58.1534 59.791 54.8096C63.5571 51.4705 65.6005 46.7418 65.6006 41.1631C65.6006 35.5834 63.5562 30.8107 59.7881 27.4287C56.0158 24.043 50.4721 22.0128 43.4121 22.0127H24.1885V115.235H0.5V0.5H43.4121Z" stroke="url(#paint0_linear_2160_16236)"/>
<defs>
<linearGradient id="paint0_linear_2160_16236" x1="1" y1="57.8677" x2="88.7891" y2="57.8677" gradientUnits="userSpaceOnUse">
<stop stop-color="#AD46FF" stop-opacity="0.5"/>
<stop offset="1" stop-color="#F6339A" stop-opacity="0.5"/>
</linearGradient>
</defs>
</svg>
