<svg width="51" height="53" viewBox="0 0 51 53" fill="none" xmlns="http://www.w3.org/2000/svg">
<path d="M45.7018 52.4784C43.0738 52.4784 40.7652 52.4476 38.4594 52.4951C37.6871 52.5091 37.4343 52.0139 37.1121 51.5047L25.9999 33.9816C25.1665 32.6806 25.1665 32.6862 24.3831 33.9424C20.7105 39.748 17.0157 45.5368 13.3848 51.3676C12.8459 52.2293 12.2736 52.5539 11.279 52.5035C9.57054 52.414 7.85649 52.5035 6.14799 52.4672C5.76462 52.4672 5.23957 52.6994 5.03677 52.2517C4.86731 51.8964 5.28957 51.5942 5.47848 51.2921C8.55285 46.4293 11.6318 41.5685 14.7155 36.7095C14.8849 36.4465 15.0377 36.1723 15.1989 35.9009C14.7683 35.5344 14.3404 35.6855 13.9515 35.6855C9.74556 35.6715 5.53682 35.6407 1.33086 35.7023C0.269648 35.7191 -0.0581648 35.3973 0.0335107 34.3621C0.127966 33.202 0.127966 32.036 0.0335107 30.8759C-0.074833 29.6253 0.29187 29.228 1.60588 29.2392C9.88446 29.3035 18.1603 29.27 26.4388 29.27C33.9396 29.27 41.4208 29.2895 48.9104 29.2504C49.955 29.2504 50.4217 29.4518 50.3272 30.6129C50.2272 31.8662 50.2272 33.1256 50.3272 34.3789C50.4106 35.4757 49.9772 35.6911 48.9799 35.6799C44.9128 35.6267 40.843 35.6575 36.7732 35.6575H35.0897L45.7018 52.4784Z" fill="#063BD9"/>
<path d="M45.8653 0.0181555L35.3087 16.7103H44.4346C46.0542 16.7103 47.671 16.7467 49.2878 16.6935C50.0824 16.6683 50.3352 16.9481 50.3074 17.7315C50.2546 19.1305 50.2352 20.5294 50.3074 21.9283C50.3629 22.9272 49.9962 23.1706 49.0489 23.1622C43.8234 23.1202 38.6007 23.1426 33.378 23.1426C22.7464 23.1426 12.1148 23.1258 1.48603 23.1678C0.358145 23.1678 -0.0863384 22.9244 0.0136712 21.7241C0.106743 20.4715 0.106743 19.2136 0.0136712 17.961C-0.0446678 16.9957 0.252584 16.6879 1.23879 16.6991C5.53643 16.7495 9.83683 16.7215 14.1345 16.7187C14.3567 16.7187 14.579 16.6935 15.0651 16.6655L4.54188 0.0405433C7.2477 0.0405433 9.70904 0.0405433 12.1732 0.0405433C12.7288 0.0405433 12.8677 0.600115 13.1038 0.972233C16.8727 6.94104 20.6388 12.9024 24.4021 18.8563C24.6188 19.1976 24.8605 19.5222 25.2022 20.0174C26.8385 17.4461 28.4053 14.998 29.961 12.5443C32.3918 8.70557 34.8337 4.86968 37.2311 1.00581C37.6701 0.297943 38.134 -0.023812 38.9924 0.00136887C41.201 0.0601243 43.4039 0.0181555 45.8653 0.0181555Z" fill="#3C36F2"/>
</svg>
