<svg width="55" height="55" viewBox="0 0 55 55" fill="none" xmlns="http://www.w3.org/2000/svg">
<path d="M13.8887 1.77093L16.2271 0C16.6429 0.543022 26.5592 13.2086 41.0789 2.48026L42.8205 4.84318C37.9626 8.42908 33.5255 9.73527 29.6363 9.73527C20.0478 9.70592 13.9865 1.87856 13.8887 1.77093Z" fill="#06AFF2"/>
<path d="M48.1235 34.7191C49.6636 35.9304 51.4425 36.8023 53.3433 37.2776L54.038 34.4256C52.7383 34.1032 51.5115 33.5371 50.4228 32.7574C50.0938 32.5312 49.777 32.2879 49.4737 32.0284C46.4357 29.465 44.5816 25.7079 43.8135 23.7902C46.7382 22.4032 49.5024 20.7004 52.0567 18.7122L50.2711 16.3835C42.3997 22.4155 34.3131 24.9251 26.2216 23.8342C12.0345 21.9214 2.43626 9.46612 2.34331 9.33893L1.1741 10.2244L0 11.1099C0.362015 11.5991 7.98389 21.5154 20.1358 25.4437C18.179 28.9562 12.2742 37.7375 0.714241 41.5289L1.62906 44.3174C10.8302 41.2623 18.5005 34.7798 23.0466 26.2166C23.9419 26.4172 24.8665 26.5884 25.8058 26.7058C27.1726 26.8912 28.5504 26.9844 29.9298 26.9847C31.2156 26.9846 32.5 26.9013 33.775 26.7352C33.6815 28.2418 33.8588 29.7528 34.2984 31.1968C31.3132 31.7451 28.4564 32.845 25.8743 34.4403C15.5666 40.8 13.0863 52.9519 12.9885 53.4607L15.8699 54.0281C15.8699 53.9156 18.2279 42.61 27.4446 36.9058C29.9044 35.4039 32.6383 34.4061 35.4872 33.9706C36.5924 35.8891 38.0438 37.586 39.7678 38.9752C24.7002 40.7902 22.4694 53.3775 22.4498 53.5145L25.3459 54.0037C25.434 53.4852 27.7137 41.2843 44.4251 41.7246L51.6213 41.9202L45.0757 38.9214C42.5721 37.6989 40.3929 35.902 38.716 33.6771C41.8846 33.5958 45.0495 33.9463 48.1235 34.7191ZM37.2239 30.8348C36.7183 29.3612 36.5609 27.7906 36.764 26.246C38.2368 25.9072 39.6849 25.4692 41.0984 24.9349C41.9891 27.1189 43.1547 29.1805 44.5669 31.0696C42.1353 30.7215 39.6728 30.6428 37.2239 30.8348Z" fill="#06AFF2"/>
<path d="M6.77148 5.38145L7.98961 4.56445L9.20775 3.74261C9.27135 3.84046 16.0567 13.7029 26.7263 15.2879C33.1545 16.2419 39.749 14.0258 46.3289 8.7032L48.1781 10.9878C42.0483 15.9435 35.8403 18.4384 29.6714 18.4384C28.5251 18.4398 27.3804 18.3549 26.2469 18.1841C14.32 16.3936 7.07479 5.83152 6.77148 5.38145Z" fill="#06AFF2"/>
</svg>
