<svg width="32" height="32" viewBox="0 0 32 32" fill="none" xmlns="http://www.w3.org/2000/svg">
<path fill-rule="evenodd" clip-rule="evenodd" d="M26.8714 25.5956H5.23038C5.07356 25.5956 4.94629 25.4683 4.94629 25.3115V9.0264C4.94629 8.86958 5.07356 8.74231 5.23038 8.74231H7.35198C7.5088 8.74231 7.63607 8.86958 7.63607 9.0264C7.63607 9.18322 7.5088 9.31049 7.35198 9.31049H5.51448V25.0274H26.5874V9.31049H24.7499C24.593 9.31049 24.4658 9.18322 24.4658 9.0264C24.4658 8.86958 24.593 8.74231 24.7499 8.74231H26.8715C27.0283 8.74231 27.1555 8.86958 27.1555 9.0264V25.3115C27.1555 25.4683 27.0282 25.5956 26.8714 25.5956Z" fill="url(#paint0_linear_2986_35408)"/>
<path fill-rule="evenodd" clip-rule="evenodd" d="M13.2421 28.9348C13.0853 28.9348 12.958 28.8075 12.958 28.6507V25.3111C12.958 25.1542 13.0853 25.027 13.2421 25.027C13.3989 25.027 13.5262 25.1542 13.5262 25.3111V28.6498C13.5262 28.8066 13.3989 28.9339 13.2421 28.9339V28.9348ZM18.8581 28.9348C18.7013 28.9348 18.574 28.8075 18.574 28.6507V25.3111C18.574 25.1542 18.7013 25.027 18.8581 25.027C19.0149 25.027 19.1422 25.1542 19.1422 25.3111V28.6498C19.1422 28.8066 19.0149 28.9339 18.8581 28.9339V28.9348Z" fill="url(#paint1_linear_2986_35408)"/>
<path fill-rule="evenodd" clip-rule="evenodd" d="M21.4535 28.935H10.6444C10.4876 28.935 10.3604 28.8077 10.3604 28.6509C10.3604 28.4941 10.4876 28.3668 10.6444 28.3668H21.4535C21.6103 28.3668 21.7375 28.4941 21.7375 28.6509C21.7375 28.8077 21.6103 28.935 21.4535 28.935Z" fill="url(#paint2_linear_2986_35408)"/>
<path fill-rule="evenodd" clip-rule="evenodd" d="M26.8714 22.2147H5.23038C5.07356 22.2147 4.94629 22.0874 4.94629 21.9306C4.94629 21.7738 5.07356 21.6465 5.23038 21.6465H26.8714C27.0282 21.6465 27.1555 21.7738 27.1555 21.9306C27.1555 22.0874 27.0282 22.2147 26.8714 22.2147Z" fill="url(#paint3_linear_2986_35408)"/>
<path fill-rule="evenodd" clip-rule="evenodd" d="M8.2958 3.47831C7.93217 3.47831 7.63559 3.77376 7.63559 4.13853V18.7396C7.63559 19.1032 7.93217 19.3998 8.2958 19.3998H23.8059C24.1696 19.3998 24.4661 19.1043 24.4661 18.7396V4.13737C24.4661 3.77373 24.1707 3.47715 23.8059 3.47715H8.2958V3.47831ZM23.8059 19.9682H8.2958C7.61854 19.9682 7.06738 19.4171 7.06738 18.7398V4.1376C7.06738 3.46034 7.61851 2.90918 8.2958 2.90918H23.8059C24.4832 2.90918 25.0343 3.45917 25.0343 4.1376V18.7386C25.0343 19.4159 24.4832 19.967 23.8059 19.967V19.9682Z" fill="url(#paint4_linear_2986_35408)"/>
<path fill-rule="evenodd" clip-rule="evenodd" d="M24.7505 7.77948H7.35147C7.19466 7.77948 7.06738 7.65221 7.06738 7.49539C7.06738 7.33858 7.19466 7.2113 7.35147 7.2113H24.7505C24.9073 7.2113 25.0345 7.33858 25.0345 7.49539C25.0345 7.65221 24.9073 7.77948 24.7505 7.77948Z" fill="url(#paint5_linear_2986_35408)"/>
<path fill-rule="evenodd" clip-rule="evenodd" d="M15.0104 5.82H23.1559V4.86887H15.0104V5.82ZM23.4401 6.38817H14.7265C14.5697 6.38817 14.4424 6.2609 14.4424 6.10408V4.58475C14.4424 4.42793 14.5697 4.30066 14.7265 4.30066H23.4401C23.5969 4.30066 23.7242 4.42793 23.7242 4.58475V6.10408C23.7242 6.2609 23.5969 6.38817 23.4401 6.38817Z" fill="url(#paint6_linear_2986_35408)"/>
<path fill-rule="evenodd" clip-rule="evenodd" d="M9.58264 5.62909H8.66104C8.50423 5.62909 8.37695 5.50182 8.37695 5.345C8.37695 5.18819 8.50423 5.06091 8.66104 5.06091H9.58378C9.74059 5.06091 9.86787 5.18819 9.86787 5.345C9.86787 5.50182 9.74059 5.62909 9.58378 5.62909H9.58264Z" fill="url(#paint7_linear_2986_35408)"/>
<path fill-rule="evenodd" clip-rule="evenodd" d="M11.4987 5.62909H10.5771C10.4191 5.62909 10.293 5.50182 10.293 5.345C10.293 5.18819 10.4191 5.06091 10.5771 5.06091H11.4998C11.6566 5.06091 11.7839 5.18819 11.7839 5.345C11.7839 5.50182 11.6566 5.62909 11.4998 5.62909H11.4987Z" fill="url(#paint8_linear_2986_35408)"/>
<path fill-rule="evenodd" clip-rule="evenodd" d="M13.4158 5.62909H12.4931C12.3363 5.62909 12.209 5.50182 12.209 5.345C12.209 5.18819 12.3363 5.06091 12.4931 5.06091H13.4158C13.5726 5.06091 13.6999 5.18819 13.6999 5.345C13.6999 5.50182 13.5726 5.62909 13.4158 5.62909Z" fill="url(#paint9_linear_2986_35408)"/>
<path fill-rule="evenodd" clip-rule="evenodd" d="M15.0524 18.6328C12.8217 18.6328 11.0059 16.8169 11.0059 14.5863C11.0059 12.959 11.9729 11.4977 13.4695 10.86C13.6138 10.7987 13.7809 10.8657 13.8422 11.01C13.9036 11.1543 13.8365 11.3214 13.6922 11.3827C12.4059 11.9305 11.5741 13.1873 11.5741 14.5862C11.5741 16.5044 13.1343 18.0646 15.0525 18.0646C16.4513 18.0646 17.7081 17.2328 18.2559 15.9465C18.3173 15.8021 18.4844 15.7351 18.6287 15.7965C18.773 15.8578 18.84 16.0249 18.7787 16.1692C18.1423 17.6658 16.6798 18.6328 15.0524 18.6328Z" fill="url(#paint10_linear_2986_35408)"/>
<path fill-rule="evenodd" clip-rule="evenodd" d="M16.8482 9.12C15.0209 9.22228 13.5653 10.7416 13.5653 12.5937C13.5653 14.5119 15.1255 16.0733 17.0448 16.0733C18.8244 16.0733 20.3004 14.7256 20.5006 12.9961C20.4642 12.9995 20.4256 13.0018 20.3892 13.0018C19.7687 13.0018 19.2596 12.5131 19.2278 11.9006C18.9153 11.6858 18.7221 11.3267 18.7221 10.9404C18.7221 10.9211 18.7233 10.9006 18.7244 10.8802C18.5255 10.7677 18.3642 10.6006 18.2608 10.3983C18.1767 10.4177 18.0914 10.4268 18.0039 10.4268C17.3619 10.4268 16.8403 9.90516 16.8403 9.26425C16.8403 9.21539 16.8437 9.16766 16.8494 9.11994L16.8482 9.12ZM17.0448 16.6415C14.813 16.6415 12.9971 14.8255 12.9971 12.5937C12.9971 10.2949 14.9209 8.43811 17.2493 8.55157C17.3482 8.55611 17.4368 8.61179 17.4834 8.69816C17.5311 8.78452 17.5311 8.88907 17.4822 8.9743C17.4334 9.0618 17.4072 9.16293 17.4072 9.26407C17.4072 9.59248 17.6732 9.8584 18.0016 9.8584C18.1027 9.8584 18.2027 9.83226 18.2913 9.7834C18.3709 9.73908 18.4675 9.73567 18.5504 9.77431C18.6334 9.81294 18.6925 9.88908 18.7095 9.97885C18.7504 10.1959 18.9073 10.3709 19.1186 10.4368C19.2652 10.4823 19.3493 10.6345 19.3095 10.7834C19.2959 10.8345 19.2879 10.8879 19.2879 10.9413C19.2879 11.1732 19.4231 11.3845 19.6334 11.4823C19.7436 11.5334 19.8095 11.6504 19.7959 11.772C19.7936 11.7948 19.7925 11.8175 19.7925 11.8402C19.7925 12.1686 20.0595 12.4345 20.3868 12.4345C20.4879 12.4345 20.5822 12.4107 20.6697 12.363C20.7584 12.3152 20.8652 12.3164 20.9516 12.3686C21.0379 12.4198 21.0902 12.5141 21.0891 12.6141C21.08 14.8357 19.2641 16.6426 17.0425 16.6426L17.0448 16.6415Z" fill="url(#paint11_linear_2986_35408)"/>
<path fill-rule="evenodd" clip-rule="evenodd" d="M15.5195 11.075C15.4763 11.1295 15.4672 11.1875 15.4888 11.2522C15.5184 11.3409 15.5479 11.3591 15.7525 11.4113C15.7729 11.4159 15.7922 11.4216 15.8138 11.4272C15.915 11.4534 16.0195 11.3943 16.0468 11.2932L16.1706 10.8295C16.2036 10.7068 16.1002 10.6193 16.0422 10.5909C15.9945 10.567 15.9297 10.55 15.8888 10.6022L15.5195 11.075ZM15.8627 12.0022C15.7979 12.0022 15.732 11.9943 15.6672 11.9761L15.6116 11.9613C15.3888 11.9034 15.082 11.825 14.9513 11.4318C14.8695 11.1863 14.9138 10.9284 15.0729 10.725L15.4434 10.2522C15.6445 9.99543 15.9877 9.92724 16.2979 10.0818C16.6422 10.2534 16.8161 10.6216 16.7206 10.9772L16.5968 11.4397C16.5059 11.7784 16.199 12.0022 15.8638 12.0022L15.8627 12.0022Z" fill="url(#paint12_linear_2986_35408)"/>
<path fill-rule="evenodd" clip-rule="evenodd" d="M15.3817 13.3025C15.3544 13.3025 15.3238 13.3128 15.2999 13.3253C15.2419 13.3548 15.1385 13.4423 15.1715 13.565L15.2953 14.0275C15.3078 14.0764 15.3397 14.1173 15.384 14.1434C15.4283 14.1684 15.4794 14.1753 15.5283 14.1628C15.5488 14.1571 15.5692 14.1525 15.5897 14.1468C15.7942 14.0946 15.8238 14.0764 15.8533 13.9878C15.8749 13.923 15.8647 13.865 15.8226 13.8105L15.4533 13.3378C15.434 13.3128 15.4079 13.3037 15.3817 13.3037L15.3817 13.3025ZM15.4783 14.7378C15.3465 14.7378 15.2169 14.7025 15.0999 14.6355C14.9237 14.5344 14.7987 14.3707 14.7465 14.1753L14.6226 13.7116C14.5272 13.3559 14.701 12.9889 15.0465 12.8162C15.3567 12.6605 15.6999 12.7298 15.901 12.9866L16.2703 13.4594C16.4294 13.6639 16.4737 13.9207 16.3919 14.1662C16.2601 14.5582 15.9556 14.6378 15.7317 14.6957L15.6749 14.7105C15.6101 14.7275 15.5442 14.7366 15.4783 14.7366V14.7378Z" fill="url(#paint13_linear_2986_35408)"/>
<path fill-rule="evenodd" clip-rule="evenodd" d="M18.5292 13.3874C18.5019 13.3874 18.4712 13.3976 18.4474 13.4101C18.3894 13.4396 18.286 13.5271 18.3189 13.6499L18.4428 14.1124C18.4553 14.1612 18.4871 14.2021 18.5314 14.2283C18.5758 14.2533 18.6269 14.2601 18.6758 14.2476C18.6962 14.2419 18.7167 14.2374 18.7371 14.2317C18.9417 14.1794 18.9712 14.1612 19.0008 14.0726C19.0224 14.0078 19.0121 13.9499 18.9701 13.8953L18.6008 13.4226C18.5815 13.3976 18.5553 13.3885 18.5292 13.3885L18.5292 13.3874ZM18.6258 14.8226C18.4939 14.8226 18.3644 14.7874 18.2473 14.7203C18.0712 14.6192 17.9462 14.4556 17.8939 14.2601L17.7701 13.7965C17.6746 13.4408 17.8485 13.0737 18.1939 12.901C18.5042 12.7453 18.8474 12.8147 19.0485 13.0715L19.4178 13.5442C19.5769 13.7487 19.6212 14.0056 19.5394 14.251C19.4076 14.6442 19.103 14.7226 18.8792 14.7806L18.8235 14.7953C18.7587 14.8124 18.6928 14.8215 18.6269 14.8215L18.6258 14.8226Z" fill="url(#paint14_linear_2986_35408)"/>
<path fill-rule="evenodd" clip-rule="evenodd" d="M17.5423 12.0593C17.4946 12.0593 17.4457 12.0468 17.4003 12.0207C17.2651 11.9423 17.2185 11.7684 17.2969 11.6332L17.4742 11.3252C17.5526 11.19 17.7264 11.1434 17.8616 11.2218C17.998 11.3002 18.0435 11.4741 17.9662 11.6093L17.7889 11.9173C17.7366 12.0082 17.6412 12.0593 17.5423 12.0593Z" fill="url(#paint15_linear_2986_35408)"/>
<path fill-rule="evenodd" clip-rule="evenodd" d="M17.0782 13.5532C16.9804 13.5532 16.8839 13.502 16.8316 13.4111L16.6543 13.1043C16.5759 12.9679 16.6225 12.7941 16.7577 12.7157C16.8941 12.6373 17.0668 12.6838 17.1463 12.8202L17.3236 13.127C17.402 13.2634 17.3554 13.4361 17.2191 13.5157C17.1736 13.5407 17.1259 13.5532 17.0782 13.5532Z" fill="url(#paint16_linear_2986_35408)"/>
<path fill-rule="evenodd" clip-rule="evenodd" d="M14.6914 12.5502C14.5937 12.5502 14.4982 12.4991 14.4448 12.4082L14.2675 12.1014C14.1891 11.965 14.2357 11.7923 14.3721 11.7127C14.5073 11.6343 14.6812 11.6809 14.7607 11.8173L14.938 12.1241C15.0164 12.2605 14.9698 12.4332 14.8346 12.5127C14.7891 12.5377 14.7414 12.5502 14.6925 12.5502L14.6914 12.5502Z" fill="url(#paint17_linear_2986_35408)"/>
<path fill-rule="evenodd" clip-rule="evenodd" d="M16.9233 15.5353C16.8756 15.5353 16.8267 15.524 16.7813 15.4978C16.6449 15.4194 16.5983 15.2455 16.6767 15.1092L16.854 14.8024C16.9324 14.666 17.1063 14.6206 17.2415 14.6978C17.3779 14.7762 17.4244 14.9501 17.346 15.0865L17.1688 15.3933C17.1165 15.4842 17.021 15.5353 16.9222 15.5353L16.9233 15.5353Z" fill="url(#paint18_linear_2986_35408)"/>
<defs>
<linearGradient id="paint0_linear_2986_35408" x1="4.94629" y1="19.6008" x2="23.4292" y2="11.3017" gradientUnits="userSpaceOnUse">
<stop stop-color="#40C9FF"/>
<stop offset="1" stop-color="#E81CFF"/>
</linearGradient>
<linearGradient id="paint1_linear_2986_35408" x1="12.958" y1="27.5448" x2="17.7492" y2="24.9613" gradientUnits="userSpaceOnUse">
<stop stop-color="#40C9FF"/>
<stop offset="1" stop-color="#E81CFF"/>
</linearGradient>
<linearGradient id="paint2_linear_2986_35408" x1="10.3604" y1="28.7329" x2="10.5996" y2="27.1004" gradientUnits="userSpaceOnUse">
<stop stop-color="#40C9FF"/>
<stop offset="1" stop-color="#E81CFF"/>
</linearGradient>
<linearGradient id="paint3_linear_2986_35408" x1="4.94629" y1="22.0126" x2="5.07079" y2="20.3544" gradientUnits="userSpaceOnUse">
<stop stop-color="#40C9FF"/>
<stop offset="1" stop-color="#E81CFF"/>
</linearGradient>
<linearGradient id="paint4_linear_2986_35408" x1="7.06738" y1="13.9002" x2="22.9845" y2="8.18815" gradientUnits="userSpaceOnUse">
<stop stop-color="#40C9FF"/>
<stop offset="1" stop-color="#E81CFF"/>
</linearGradient>
<linearGradient id="paint5_linear_2986_35408" x1="7.06738" y1="7.57738" x2="7.22083" y2="5.92408" gradientUnits="userSpaceOnUse">
<stop stop-color="#40C9FF"/>
<stop offset="1" stop-color="#E81CFF"/>
</linearGradient>
<linearGradient id="paint6_linear_2986_35408" x1="14.4424" y1="5.64563" x2="17.2591" y2="1.37828" gradientUnits="userSpaceOnUse">
<stop stop-color="#40C9FF"/>
<stop offset="1" stop-color="#E81CFF"/>
</linearGradient>
<linearGradient id="paint7_linear_2986_35408" x1="8.37695" y1="5.42699" x2="9.20552" y2="4.68618" gradientUnits="userSpaceOnUse">
<stop stop-color="#40C9FF"/>
<stop offset="1" stop-color="#E81CFF"/>
</linearGradient>
<linearGradient id="paint8_linear_2986_35408" x1="10.293" y1="5.42699" x2="11.1215" y2="4.68618" gradientUnits="userSpaceOnUse">
<stop stop-color="#40C9FF"/>
<stop offset="1" stop-color="#E81CFF"/>
</linearGradient>
<linearGradient id="paint9_linear_2986_35408" x1="12.209" y1="5.42699" x2="13.0376" y2="4.68618" gradientUnits="userSpaceOnUse">
<stop stop-color="#40C9FF"/>
<stop offset="1" stop-color="#E81CFF"/>
</linearGradient>
<linearGradient id="paint10_linear_2986_35408" x1="11.0059" y1="15.8599" x2="17.9905" y2="13.48" gradientUnits="userSpaceOnUse">
<stop stop-color="#40C9FF"/>
<stop offset="1" stop-color="#E81CFF"/>
</linearGradient>
<linearGradient id="paint11_linear_2986_35408" x1="12.9971" y1="13.7628" x2="20.2481" y2="11.2934" gradientUnits="userSpaceOnUse">
<stop stop-color="#40C9FF"/>
<stop offset="1" stop-color="#E81CFF"/>
</linearGradient>
<linearGradient id="paint12_linear_2986_35408" x1="14.9111" y1="11.29" x2="16.5835" y2="10.7677" gradientUnits="userSpaceOnUse">
<stop stop-color="#40C9FF"/>
<stop offset="1" stop-color="#E81CFF"/>
</linearGradient>
<linearGradient id="paint13_linear_2986_35408" x1="14.5967" y1="14.0249" x2="16.2692" y2="13.503" gradientUnits="userSpaceOnUse">
<stop stop-color="#40C9FF"/>
<stop offset="1" stop-color="#E81CFF"/>
</linearGradient>
<linearGradient id="paint14_linear_2986_35408" x1="17.7441" y1="14.1098" x2="19.4167" y2="13.5878" gradientUnits="userSpaceOnUse">
<stop stop-color="#40C9FF"/>
<stop offset="1" stop-color="#E81CFF"/>
</linearGradient>
<linearGradient id="paint15_linear_2986_35408" x1="17.2588" y1="11.7479" x2="17.946" y2="11.5486" gradientUnits="userSpaceOnUse">
<stop stop-color="#40C9FF"/>
<stop offset="1" stop-color="#E81CFF"/>
</linearGradient>
<linearGradient id="paint16_linear_2986_35408" x1="16.6162" y1="13.2417" x2="17.3038" y2="13.0423" gradientUnits="userSpaceOnUse">
<stop stop-color="#40C9FF"/>
<stop offset="1" stop-color="#E81CFF"/>
</linearGradient>
<linearGradient id="paint17_linear_2986_35408" x1="14.2295" y1="12.2388" x2="14.918" y2="12.0388" gradientUnits="userSpaceOnUse">
<stop stop-color="#40C9FF"/>
<stop offset="1" stop-color="#E81CFF"/>
</linearGradient>
<linearGradient id="paint18_linear_2986_35408" x1="16.6387" y1="15.2241" x2="17.3262" y2="15.0245" gradientUnits="userSpaceOnUse">
<stop stop-color="#40C9FF"/>
<stop offset="1" stop-color="#E81CFF"/>
</linearGradient>
</defs>
</svg>
