<svg width="28" height="30" viewBox="0 0 28 30" fill="none" xmlns="http://www.w3.org/2000/svg">
<path d="M23.0113 1.23233C20.4847 0.437667 17.1327 0 13.5727 0C10.0233 0 6.67833 0.435333 4.15433 1.226C1.458 2.07033 0.0216666 3.205 0.000999928 4.505C0.000333261 4.515 0 4.525 0 4.53533L0.000333309 11.504C0.000333309 11.507 0 11.51 0 11.513C0 11.5157 0.000333309 11.5183 0.000333309 11.521L0.000666618 18.4747C0.000333285 18.48 0 18.4853 0 18.491C0 18.497 0.000333285 18.5033 0.000666618 18.5093L0.000999928 25.4373C0.000666594 25.4467 0.000333309 25.4557 0.000333309 25.465C0.000333309 26.7753 1.43 27.9177 4.13433 28.768C6.66067 29.5623 10.0127 30 13.5727 30C17.1327 30 20.4847 29.5623 23.0113 28.7677C25.7157 27.9173 27.1453 26.775 27.1453 25.4647V4.53533C27.1453 3.22467 25.7157 2.08267 23.0113 1.23233ZM4.387 1.96967C6.838 1.202 10.1 0.779333 13.5727 0.779333C17.0553 0.779333 20.3243 1.20433 22.7777 1.97567C25.0247 2.68233 26.366 3.63933 26.366 4.53533C26.366 5.43133 25.0243 6.38833 22.7777 7.095C20.3243 7.86633 17.0553 8.29133 13.5727 8.29133C10.09 8.29133 6.821 7.86633 4.36767 7.095C2.12633 6.39 0.786 5.43633 0.779333 4.542C0.779667 4.536 0.78 4.52967 0.78 4.522C0.792333 3.62733 2.141 2.673 4.387 1.96967ZM16.0233 17.3403V18.881H11.122V17.3403C11.122 15.989 12.2213 14.8897 13.5727 14.8897C14.924 14.89 16.0233 15.9893 16.0233 17.3403ZM9.34633 21.2707H17.799V27.3093C17.799 27.4237 17.7023 27.5203 17.588 27.5203H9.55733C9.443 27.5203 9.34633 27.4237 9.34633 27.3093V21.2707ZM17.799 20.4913H9.34633V19.8717C9.34633 19.7573 9.443 19.6607 9.55733 19.6607H17.5877C17.702 19.6607 17.7987 19.7573 17.7987 19.8717L17.799 20.4913ZM10.343 17.3403V18.881H9.55767C9.01167 18.881 8.56733 19.3253 8.56733 19.8713V21.934C6.30367 21.6387 4.37 21.1533 2.95533 20.5233C1.565 19.9043 0.794 19.19 0.78 18.5097L0.779667 13.0927C1.35033 13.637 2.22833 14.1333 3.396 14.5647C5.289 15.2637 7.84833 15.7493 10.659 15.9473C10.4567 16.3693 10.343 16.842 10.343 17.3403ZM22.7777 28.0243C20.3243 28.7957 17.0553 29.2207 13.5727 29.2207C10.09 29.2207 6.821 28.7957 4.36767 28.0243C2.12633 27.3197 0.786 26.366 0.779333 25.4717C0.779667 25.4657 0.78 25.46 0.78 25.454C0.78 25.4513 0.78 25.4487 0.78 25.446L0.779667 20.067C1.21967 20.488 1.84233 20.881 2.638 21.2353C4.14133 21.9047 6.186 22.4157 8.567 22.7193V27.309C8.567 27.855 9.01133 28.2993 9.55733 28.2993H17.5877C18.1337 28.2993 18.578 27.855 18.578 27.309V22.7193C20.959 22.4157 23.0037 21.9047 24.507 21.2353C25.303 20.8807 25.9257 20.4877 26.366 20.0667V25.465C26.366 26.361 25.0247 27.318 22.7777 28.0243ZM24.1903 20.5237C22.7757 21.1537 20.842 21.639 18.5783 21.9343V19.8717C18.5783 19.3257 18.134 18.8813 17.588 18.8813H16.8027V17.3407C16.8027 16.842 16.689 16.3697 16.4863 15.9477C19.297 15.7497 21.8563 15.264 23.7493 14.565C24.9173 14.1337 25.7957 13.6373 26.366 13.0927V18.4913C26.366 19.177 25.5933 19.8987 24.1903 20.5237ZM15.9873 15.1987C15.3953 14.5317 14.5323 14.1107 13.5727 14.1107C12.613 14.1107 11.75 14.532 11.158 15.1987C4.666 14.8183 0.790333 13.0403 0.779333 11.5193V6.12033C1.46367 6.77267 2.591 7.353 4.134 7.83833C6.66067 8.633 10.0127 9.07067 13.5727 9.07067C17.1327 9.07067 20.4847 8.633 23.0113 7.83833C24.5547 7.353 25.682 6.77267 26.366 6.12033V11.513C26.366 13.0353 22.4883 14.8177 15.9873 15.1987ZM13.5727 9.66967C12.5563 9.66967 11.7293 10.4967 11.7293 11.513C11.7293 12.5293 12.5563 13.3563 13.5727 13.3563C14.589 13.3563 15.416 12.5293 15.416 11.513C15.416 10.4967 14.589 9.66967 13.5727 9.66967ZM13.5727 12.577C12.986 12.577 12.5087 12.0997 12.5087 11.513C12.5087 10.9263 12.986 10.449 13.5727 10.449C14.1593 10.449 14.6367 10.9263 14.6367 11.513C14.6367 12.0997 14.1593 12.577 13.5727 12.577ZM13.183 24.9503V25.7063C13.183 25.9213 13.3573 26.096 13.5727 26.096C13.788 26.096 13.9623 25.9217 13.9623 25.7063V24.9503C14.5537 24.7807 14.9877 24.2353 14.9877 23.5903C14.9877 22.81 14.353 22.1753 13.5727 22.1753C12.7923 22.1753 12.1577 22.81 12.1577 23.5903C12.1577 24.2353 12.5917 24.7807 13.183 24.9503ZM13.5727 22.9547C13.9233 22.9547 14.2083 23.24 14.2083 23.5903C14.2083 23.941 13.923 24.226 13.5727 24.226C13.2223 24.226 12.937 23.9407 12.937 23.5903C12.937 23.24 13.222 22.9547 13.5727 22.9547Z" fill="url(#paint0_linear_2986_35686)"/>
<defs>
<linearGradient id="paint0_linear_2986_35686" x1="2.4448e-07" y1="19.3289" x2="24.7891" y2="11.6862" gradientUnits="userSpaceOnUse">
<stop stop-color="#40C9FF"/>
<stop offset="1" stop-color="#E81CFF"/>
</linearGradient>
</defs>
</svg>
