<svg width="27" height="27" viewBox="0 0 27 27" fill="none" xmlns="http://www.w3.org/2000/svg">
<path d="M3.28054 18.29L4.63053 17.5594C5.151 16.6116 5.98279 16.0389 6.93962 15.6923C7.89415 15.3468 8.97145 15.2275 9.98835 15.1821L14.2769 15.1809C14.7463 15.1809 15.1735 15.373 15.4815 15.6821C15.5837 15.7844 15.6735 15.9003 15.7485 16.0264L19.103 14.123C19.5121 13.8912 19.9791 13.8446 20.403 13.9616C20.7371 14.0537 21.0439 14.2457 21.2757 14.5275L21.5041 14.398C21.9121 14.1662 22.378 14.1196 22.7985 14.2321C23.2178 14.3446 23.5962 14.6162 23.8314 15.0218L23.8405 15.0389C23.9235 15.1866 23.9825 15.3434 24.0178 15.5002L24.0201 15.5082L24.1916 15.4093C24.5973 15.1741 25.0621 15.1275 25.4837 15.24C25.9053 15.3525 26.2848 15.6264 26.52 16.0332L26.5291 16.0503C26.7564 16.4537 26.8007 16.9116 26.6894 17.3264C26.5769 17.748 26.303 18.1275 25.8962 18.3616L16.5496 23.5186C16.2814 23.6663 16.012 23.7651 15.7314 23.8276C15.4575 23.889 15.1757 23.9129 14.8757 23.9129L7.84035 23.9277L6.7824 24.4617L6.77672 24.4651C6.79376 24.5845 6.78694 24.7038 6.75626 24.8185C6.69945 25.0344 6.55854 25.2288 6.35059 25.3492L4.79833 26.2447C4.59037 26.3651 4.35173 26.3901 4.13698 26.3322C3.9222 26.2753 3.7279 26.1344 3.60743 25.9265L0.116525 19.8811C-0.00392879 19.6731 -0.027792 19.4345 0.03016 19.2197C0.0869775 19.005 0.227888 18.8107 0.435833 18.6902L1.98696 17.7948C2.19491 17.6743 2.43356 17.6504 2.64831 17.7084C2.86309 17.7652 3.05739 17.9061 3.17785 18.1152L3.28013 18.2936L3.28054 18.29ZM16.2225 3.55811C16.3509 3.55811 16.4668 3.50697 16.5486 3.42401C16.6327 3.33992 16.6839 3.22401 16.6839 3.09674C16.6839 2.96833 16.6327 2.85242 16.5498 2.7706C16.4657 2.68651 16.3498 2.63538 16.2225 2.63538C16.0941 2.63538 15.9782 2.68651 15.8964 2.76947C15.8123 2.85356 15.7611 2.96947 15.7611 3.09674C15.7611 3.22515 15.8123 3.34106 15.8952 3.42288C15.9793 3.50697 16.0952 3.55811 16.2225 3.55811ZM16.96 3.83311C16.7691 4.02401 16.5089 4.14106 16.2225 4.14106C15.9361 4.14106 15.6748 4.02402 15.4862 3.83537C15.2952 3.64447 15.1782 3.3831 15.1782 3.09673C15.1782 2.81036 15.2952 2.549 15.4839 2.36038C15.6748 2.16947 15.9362 2.05242 16.2225 2.05242C16.5089 2.05242 16.7703 2.16947 16.9589 2.35811C17.1498 2.54902 17.2668 2.81039 17.2668 3.09676C17.2668 3.38312 17.1498 3.64448 16.9612 3.83311H16.96ZM16.2225 11.6353C16.3146 11.6353 16.3986 11.5978 16.4589 11.5376C16.5191 11.4773 16.5566 11.3932 16.5566 11.3012V5.48301C16.5566 5.39097 16.5191 5.30688 16.4589 5.24665C16.3986 5.18642 16.3146 5.14892 16.2225 5.14892C16.1305 5.14892 16.0464 5.18642 15.9861 5.24665C15.9259 5.30688 15.8884 5.39097 15.8884 5.48301V11.3012C15.8884 11.3932 15.9259 11.4773 15.9861 11.5376C16.0464 11.5978 16.1305 11.6353 16.2225 11.6353ZM16.8691 11.9478C16.7032 12.1137 16.4736 12.2171 16.2225 12.2171C15.9714 12.2171 15.7418 12.1137 15.5759 11.9489C15.4089 11.7819 15.3054 11.5523 15.3054 11.3012V5.483C15.3054 5.23186 15.4089 5.00233 15.5736 4.83639C15.7407 4.66935 15.9702 4.56594 16.2214 4.56594C16.4725 4.56594 16.702 4.66935 16.868 4.83412C17.035 5.00117 17.1384 5.23072 17.1384 5.48186V11.3C17.1384 11.5512 17.035 11.7807 16.8691 11.9466V11.9478ZM10.0566 10.208C9.79751 9.71709 9.59525 9.18868 9.45887 8.63756C9.32705 8.10004 9.25659 7.53984 9.25659 6.96596C9.25659 5.04436 10.0361 3.30342 11.2964 2.04204C12.5589 0.779549 14.2997 0 16.2215 0C18.1453 0 19.8863 0.779549 21.1465 2.03977C22.4068 3.29999 23.1863 5.04079 23.1863 6.96486C23.1863 8.88759 22.4068 10.6286 21.1465 11.8888C19.8852 13.1501 18.1432 13.9297 16.2215 13.9297H10.7771C10.5896 13.9297 10.4112 13.8888 10.2498 13.8092C10.0907 13.7308 9.94983 13.6149 9.83504 13.4649C9.71913 13.3138 9.64299 13.1479 9.60777 12.9729C9.57368 12.799 9.57936 12.6172 9.62822 12.4354L10.1055 10.6467C10.1259 10.5683 10.1328 10.4933 10.1248 10.4217C10.1168 10.3479 10.0941 10.2763 10.0566 10.2058L10.0566 10.208ZM10.0225 8.49891C10.1475 9.0046 10.3327 9.48867 10.5691 9.93754C10.6407 10.075 10.685 10.2148 10.7009 10.3569C10.7168 10.5012 10.7055 10.6478 10.6657 10.7955L10.1884 12.5841C10.1634 12.6796 10.16 12.7739 10.1771 12.8625C10.1941 12.9489 10.2339 13.0341 10.2941 13.1125C10.3543 13.1909 10.4259 13.2512 10.5055 13.2898C10.5839 13.3284 10.6748 13.3489 10.7748 13.3489H16.2191C17.9816 13.3489 19.5783 12.6341 20.7341 11.4796C21.8886 10.3239 22.6034 8.72844 22.6034 6.96466C22.6034 5.20216 21.8886 3.60553 20.7341 2.45091C19.5784 1.29522 17.9829 0.581588 16.2203 0.581588C14.4567 0.581588 12.86 1.29635 11.7066 2.44978C10.5509 3.60547 9.83724 5.20091 9.83724 6.96469C9.83724 7.49536 9.90088 8.00899 10.0213 8.49763L10.0225 8.49891ZM6.53829 23.9343L7.63714 23.3786C7.67691 23.3592 7.72123 23.3479 7.76782 23.3479L14.8736 23.3331C15.1327 23.3331 15.3747 23.3127 15.6042 23.2615C15.8281 23.2115 16.0463 23.1308 16.2679 23.0092L25.6087 17.8558C25.8723 17.7024 26.0507 17.4524 26.1246 17.1763C26.1973 16.9024 26.17 16.6001 26.0223 16.3365L26.0143 16.324C25.8598 16.0569 25.6098 15.8762 25.3314 15.8024C25.053 15.7285 24.7461 15.7592 24.4791 15.9126C22.6359 16.9762 20.7927 18.041 18.9495 19.1048C18.6313 19.2877 18.3075 19.4127 17.9745 19.4798C17.6415 19.5457 17.2949 19.5548 16.9324 19.507L9.98699 18.5934C9.83245 18.5866 9.70972 18.4582 9.70972 18.3025C9.70972 18.1423 9.8404 18.0116 10.0006 18.0116H14.2767C14.5858 18.0116 14.8665 17.8843 15.0699 17.6809C15.2733 17.4775 15.4006 17.1957 15.4006 16.8877C15.4006 16.5786 15.2733 16.298 15.0699 16.0945C14.8665 15.8911 14.5858 15.7639 14.2767 15.7639H10.0006C9.03813 15.8059 8.02108 15.9184 7.13698 16.2389C6.28016 16.5491 5.54379 17.0616 5.10288 17.9082C5.07675 17.9582 5.03584 18.0014 4.98243 18.0298L3.56992 18.7945L6.53807 23.9355L6.53829 23.9343ZM2.27705 18.2944L0.725925 19.1898C0.656607 19.2285 0.610015 19.2944 0.590699 19.3671C0.571381 19.4387 0.579335 19.5194 0.617972 19.5876L4.10888 25.633C4.14752 25.7023 4.21343 25.7489 4.28615 25.7682C4.35774 25.7875 4.43843 25.7796 4.50661 25.7409L6.05774 24.8455C6.12592 24.8057 6.17365 24.7398 6.19296 24.6682C6.21228 24.5955 6.20433 24.5148 6.16455 24.4455L2.67481 18.4001C2.63617 18.3319 2.57026 18.2853 2.49754 18.266C2.42481 18.2467 2.34526 18.2546 2.27708 18.2933L2.27705 18.2944ZM15.9533 16.5762C15.9726 16.6774 15.9817 16.7808 15.9817 16.8865C15.9817 17.1512 15.9203 17.4024 15.8124 17.6274L20.759 14.8206C20.6158 14.674 20.4385 14.5728 20.2488 14.5206C19.9692 14.4433 19.6601 14.474 19.3897 14.6274L15.9543 16.5774L15.9533 16.5762ZM15.1271 18.6819L17.0078 18.9296C17.3055 18.9683 17.5908 18.9615 17.8635 18.9069C18.1362 18.8524 18.401 18.7501 18.6612 18.6001L23.4749 15.8205C23.4726 15.7592 23.4658 15.6853 23.451 15.6262C23.4272 15.5217 23.3897 15.4205 23.3351 15.3239L23.3272 15.3114C23.1738 15.0455 22.9238 14.866 22.6476 14.7921C22.3681 14.7171 22.059 14.7478 21.7897 14.9012C19.5692 16.1603 17.3474 17.4217 15.1271 18.6819Z" fill="url(#paint0_linear_2985_35255)"/>
<defs>
<linearGradient id="paint0_linear_2985_35255" x1="2.40901e-07" y1="16.9849" x2="23.8923" y2="8.72493" gradientUnits="userSpaceOnUse">
<stop stop-color="#40C9FF"/>
<stop offset="1" stop-color="#E81CFF"/>
</linearGradient>
</defs>
</svg>
