<svg width="24" height="24" viewBox="0 0 24 24" fill="none" xmlns="http://www.w3.org/2000/svg">
<path d="M13.9398 16.9693C13.9329 17.4693 13.5295 17.8727 13.0307 17.8784H10.6057C10.1045 17.8784 9.69658 17.4716 9.69658 16.9693C9.69658 16.4682 10.1045 16.0602 10.6057 16.0602H10.9091V10.6057H10.6057C10.1045 10.6057 9.69658 10.1989 9.69658 9.69658C9.69658 9.19543 10.1045 8.78749 10.6057 8.78749H11.8182C12.317 8.79431 12.7205 9.19773 12.7273 9.69658V16.0602H13.0307C13.5295 16.067 13.9329 16.4705 13.9398 16.9693ZM11.5148 7.8784C12.0057 7.8784 12.4477 7.58295 12.6352 7.13068C12.8227 6.67727 12.7193 6.15567 12.3727 5.80908C12.0261 5.46249 11.5045 5.35907 11.0511 5.54658C10.5989 5.73408 10.3034 6.17613 10.3034 6.66704C10.3034 6.98864 10.4307 7.2966 10.658 7.52386C10.8853 7.75111 11.1932 7.8784 11.5148 7.8784ZM23.6364 11.8182C23.6364 14.9521 22.3909 17.959 20.1751 20.1751C17.9592 22.391 14.9524 23.6364 11.8182 23.6364C8.68393 23.6364 5.67738 22.3909 3.46124 20.1751C1.24532 17.9592 0 14.9524 0 11.8182C0 8.68393 1.24544 5.67738 3.46124 3.46124C5.67715 1.24532 8.68393 0 11.8182 0C14.9513 0.00340916 17.9558 1.24887 20.1716 3.46473C22.3876 5.68064 23.6329 8.68509 23.6364 11.8182ZM21.8182 11.8182C21.8182 9.1659 20.7648 6.62284 18.8899 4.74647C17.0138 2.87148 14.4707 1.81818 11.8182 1.81818C9.16567 1.81818 6.62284 2.87159 4.74647 4.74647C2.87148 6.6226 1.81818 9.16567 1.81818 11.8182C1.81818 14.4707 2.87159 17.0135 4.74647 18.8899C6.6226 20.7649 9.16567 21.8182 11.8182 21.8182C14.4693 21.8148 17.0115 20.7602 18.8852 18.8852C20.7602 17.0114 21.8147 14.4692 21.8182 11.8182Z" fill="url(#paint0_linear_2985_35113)"/>
<defs>
<linearGradient id="paint0_linear_2985_35113" x1="2.12888e-07" y1="15.2288" x2="21.1785" y2="8.0123" gradientUnits="userSpaceOnUse">
<stop stop-color="#40C9FF"/>
<stop offset="1" stop-color="#E81CFF"/>
</linearGradient>
</defs>
</svg>
