<svg width="25" height="25" viewBox="0 0 25 25" fill="none" xmlns="http://www.w3.org/2000/svg">
<path fill-rule="evenodd" clip-rule="evenodd" d="M18.6306 19.0578V20.5532C18.6306 20.8998 18.4886 21.2146 18.2613 21.443C18.0329 21.6714 17.7181 21.8123 17.3715 21.8123H13.4443V22.3566C13.4443 22.876 13.2318 23.3475 12.8909 23.6884C12.5488 24.0305 12.0772 24.2418 11.5591 24.2418H1.88634C1.36701 24.2418 0.896583 24.0293 0.554532 23.6884C0.212482 23.3464 0.00113609 22.8748 0.00113609 22.3566L0 11.5261C0 11.0068 0.2125 10.5352 0.553396 10.1943C0.895447 9.85222 1.36704 9.64087 1.88521 9.64087H7.55212V1.41251C7.55212 1.02388 7.71121 0.670458 7.96689 0.414778C8.22258 0.159095 8.576 0 8.96462 0H16.3112C16.6999 0 17.0533 0.159092 17.309 0.414778C17.5647 0.670461 17.7238 1.02388 17.7238 1.41251V4.45571H22.5636C23.0136 4.45571 23.4227 4.6398 23.7182 4.93638C24.0147 5.23296 24.1977 5.64093 24.1977 6.09094V17.4227C24.1977 17.8727 24.0136 18.2818 23.7182 18.5773C23.4216 18.8739 23.0136 19.0568 22.5636 19.0568L18.6306 19.0578ZM8.62831 17.7135C8.43172 17.7135 8.2533 17.793 8.12489 17.9225C7.99648 18.051 7.9158 18.2294 7.9158 18.426C7.9158 18.6226 7.99534 18.801 8.12489 18.9294C8.2533 19.0578 8.43171 19.1385 8.62831 19.1385C8.8249 19.1385 9.00332 19.0589 9.13172 18.9294C9.26013 18.801 9.34082 18.6226 9.34082 18.426C9.34082 18.2294 9.26127 18.051 9.13172 17.9225C9.00331 17.793 8.8249 17.7135 8.62831 17.7135ZM8.78285 18.2714C8.74308 18.2316 8.68853 18.2078 8.62831 18.2078C8.56808 18.2078 8.51353 18.2316 8.47376 18.2714C8.43399 18.3112 8.41012 18.3657 8.41012 18.426C8.41012 18.4862 8.43399 18.5407 8.47376 18.5805C8.51353 18.6203 8.56808 18.6441 8.62831 18.6441C8.68853 18.6441 8.74308 18.6203 8.78285 18.5805C8.82263 18.5407 8.84649 18.4862 8.84649 18.426C8.84649 18.3657 8.82149 18.3112 8.78285 18.2714ZM6.71126 17.7135C6.51467 17.7135 6.33625 17.793 6.20784 17.9225C6.07943 18.051 5.99875 18.2294 5.99875 18.426C5.99875 18.6226 6.0783 18.801 6.20784 18.9294C6.33739 19.0578 6.51466 19.1385 6.71126 19.1385C6.90786 19.1385 7.08627 19.0589 7.21468 18.9294C7.34422 18.801 7.42377 18.6226 7.42377 18.426C7.42377 18.2294 7.34422 18.051 7.21468 17.9225C7.08627 17.793 6.90786 17.7135 6.71126 17.7135ZM6.8658 18.2714C6.82603 18.2316 6.77149 18.2078 6.71126 18.2078C6.65103 18.2078 6.59649 18.2316 6.55671 18.2714C6.51694 18.3112 6.49308 18.3657 6.49308 18.426C6.49308 18.4862 6.51694 18.5407 6.55671 18.5805C6.59649 18.6203 6.65103 18.6441 6.71126 18.6441C6.77149 18.6441 6.82603 18.6203 6.8658 18.5805C6.90558 18.5407 6.92944 18.4862 6.92944 18.426C6.92944 18.3657 6.90444 18.3112 6.8658 18.2714ZM4.79421 17.7135C4.59762 17.7135 4.4192 17.793 4.29079 17.9225C4.16238 18.051 4.0817 18.2294 4.0817 18.426C4.0817 18.6226 4.16125 18.801 4.29079 18.9294C4.4192 19.0578 4.59762 19.1385 4.79421 19.1385C4.99081 19.1385 5.16922 19.0589 5.29763 18.9294C5.42604 18.801 5.50672 18.6226 5.50672 18.426C5.50672 18.2294 5.42718 18.051 5.29763 17.9225C5.16922 17.793 4.99081 17.7135 4.79421 17.7135ZM4.94876 18.2714C4.90899 18.2316 4.85444 18.2078 4.79421 18.2078C4.73399 18.2078 4.67944 18.2316 4.63967 18.2714C4.59989 18.3112 4.57603 18.3657 4.57603 18.426C4.57603 18.4862 4.59989 18.5407 4.63967 18.5805C4.67944 18.6203 4.73399 18.6441 4.79421 18.6441C4.85444 18.6441 4.90899 18.6203 4.94876 18.5805C4.98853 18.5407 5.01239 18.4862 5.01239 18.426C5.01239 18.3657 4.98739 18.3112 4.94876 18.2714ZM8.5601 15.668C7.89875 15.226 7.13055 15.0555 6.38966 15.1294C5.6351 15.2044 4.91012 15.5316 4.35783 16.0839C3.70783 16.7339 3.38282 17.5862 3.38282 18.4385C3.38282 19.2907 3.70783 20.143 4.35783 20.793C5.00784 21.443 5.86012 21.768 6.71239 21.768C7.56467 21.768 8.41695 21.443 9.06695 20.793C9.63059 20.2294 9.94762 19.5089 10.0215 18.7692C10.0954 18.0135 9.9158 17.2374 9.4817 16.5885C9.43511 16.5192 9.4283 16.4351 9.4567 16.3623L9.87942 15.2703L8.78851 15.6942C8.70897 15.7237 8.62488 15.7123 8.5601 15.668ZM6.34079 14.6385C5.47373 14.7237 4.64077 15.1009 4.00671 15.7339C3.26012 16.4805 2.88738 17.4589 2.88738 18.4373C2.88738 19.4157 3.26125 20.3942 4.00671 21.1407C4.7533 21.8873 5.73171 22.2601 6.71012 22.2601C7.68854 22.2601 8.66809 21.8862 9.41354 21.1407C10.0601 20.4941 10.4249 19.6657 10.509 18.8146C10.5897 17.9896 10.4067 17.1441 9.959 16.4214L10.5385 14.9248C10.5874 14.7976 10.5249 14.6555 10.3976 14.6055C10.3385 14.5828 10.2749 14.5839 10.2204 14.6055L8.72605 15.1862C7.9897 14.7328 7.151 14.5589 6.34079 14.6385ZM12.6375 3.04864C12.7977 3.04864 12.9432 2.98387 13.0478 2.87818C13.1523 2.77364 13.2171 2.62819 13.2171 2.46794C13.2171 2.30772 13.1523 2.16226 13.0478 2.0577C12.9432 1.95315 12.7978 1.88839 12.6375 1.88839C12.4773 1.88839 12.3318 1.95316 12.2273 2.0577C12.1227 2.16225 12.0568 2.30771 12.0568 2.46794C12.0568 2.62817 12.1216 2.77363 12.2273 2.87818C12.3318 2.98387 12.4773 3.04864 12.6375 3.04864ZM13.3977 3.22819C13.5921 3.03387 13.7125 2.76454 13.7125 2.46795C13.7125 2.17137 13.5921 1.90205 13.3977 1.70772C13.2034 1.5134 12.9341 1.39296 12.6375 1.39296C12.3409 1.39296 12.0716 1.51341 11.8773 1.70772C11.683 1.90318 11.5625 2.17137 11.5625 2.46795C11.5625 2.76454 11.683 3.03386 11.8773 3.22819C12.0716 3.42251 12.3409 3.54295 12.6375 3.54295C12.9341 3.54295 13.2034 3.4225 13.3977 3.22819ZM12.5932 4.14635C12.4091 4.14635 12.2352 4.18158 12.075 4.24976C11.9148 4.31908 11.7694 4.42022 11.6421 4.55432C11.5148 4.68727 11.4205 4.83727 11.3603 4.99976C11.2989 5.16339 11.2728 5.3384 11.2807 5.52249L11.525 11.0111C11.5375 11.302 11.6648 11.5611 11.8602 11.7486C12.0568 11.9361 12.3227 12.0497 12.6125 12.0497H12.6625C12.9534 12.0497 13.2193 11.935 13.4148 11.7486C13.6114 11.5622 13.7375 11.302 13.75 11.0111L13.9943 5.52249C14.0023 5.3384 13.9761 5.16339 13.9148 4.99976C13.8534 4.83612 13.7602 4.68726 13.6329 4.55432C13.5045 4.42022 13.3602 4.31795 13.2 4.24976C13.0398 4.18045 12.8659 4.14635 12.6818 4.14635H12.5932ZM12.6818 4.64067H12.5921C12.4739 4.64067 12.3648 4.66226 12.2671 4.70317C12.1693 4.74521 12.0796 4.80885 11.9978 4.89407C11.9159 4.9793 11.8568 5.07248 11.8205 5.17135C11.783 5.27135 11.7671 5.38157 11.7728 5.50089L12.0171 10.9895C12.0239 11.1474 12.0932 11.2883 12.2 11.3906C12.3068 11.4929 12.4523 11.5554 12.6125 11.5554H12.6625C12.8228 11.5554 12.9682 11.4929 13.075 11.3906C13.1819 11.2883 13.2512 11.1474 13.258 10.9895L13.5023 5.50089C13.508 5.38157 13.491 5.27134 13.4546 5.17135C13.4171 5.07135 13.358 4.9793 13.2773 4.89407C13.1966 4.80885 13.1057 4.74521 13.008 4.70317C12.9091 4.66226 12.8012 4.64067 12.6818 4.64067ZM21.8784 7.44974H18.8773C18.741 7.44974 18.6296 7.55997 18.6296 7.69747C18.6296 7.83383 18.741 7.9452 18.8773 7.9452H21.8784C22.0147 7.9452 22.1261 7.83497 22.1261 7.69747C22.1261 7.55997 22.0147 7.44974 21.8784 7.44974ZM21.8784 10.2304H18.8773C18.741 10.2304 18.6296 10.3418 18.6296 10.4782C18.6296 10.6145 18.741 10.7259 18.8773 10.7259H21.8784C22.0147 10.7259 22.1261 10.6157 22.1261 10.4782C22.1261 10.3418 22.0147 10.2304 21.8784 10.2304ZM21.8784 13.0122H18.5626C18.4262 13.0122 18.3148 13.1236 18.3148 13.26C18.3148 13.3963 18.4251 13.5077 18.5626 13.5077H21.8775C22.0138 13.5077 22.1252 13.3975 22.1252 13.26C22.1263 13.1236 22.0147 13.0122 21.8784 13.0122ZM21.8784 15.7941H14.4125C14.2761 15.7941 14.1647 15.9043 14.1647 16.0418C14.1647 16.1782 14.275 16.2895 14.4125 16.2895H21.8784C22.0147 16.2895 22.1261 16.1793 22.1261 16.0418C22.1261 15.9054 22.0147 15.7941 21.8784 15.7941ZM7.55225 10.135H1.88534C1.50352 10.135 1.15579 10.2918 0.903519 10.5441C0.651242 10.7963 0.494442 11.1441 0.494442 11.5259V22.3564C0.494442 22.7383 0.65126 23.086 0.903519 23.3383C1.15579 23.5905 1.50352 23.7473 1.88534 23.7473H11.5581C11.9399 23.7473 12.2876 23.5905 12.5399 23.3383C12.7922 23.086 12.949 22.7383 12.949 22.3564V18.81L12.9501 13.4442H8.96377C8.57514 13.4442 8.22172 13.2851 7.96604 13.0294C7.71035 12.7737 7.55126 12.4203 7.55126 12.0316L7.55225 10.135ZM13.4443 13.4441V18.5624H22.5626C22.8762 18.5624 23.1614 18.4339 23.3682 18.2271C23.5751 18.0203 23.7035 17.7351 23.7035 17.4215V6.09085C23.7035 5.77722 23.5751 5.49198 23.3682 5.28518C23.1614 5.07836 22.8762 4.94996 22.5626 4.94996H17.7227V12.033C17.7227 12.4216 17.5636 12.7751 17.3079 13.0307C17.0523 13.2864 16.6988 13.4455 16.3102 13.4455L13.4443 13.4441ZM16.3114 0.495154H8.96359C8.71132 0.495154 8.48292 0.598563 8.31585 0.764471C8.14995 0.93038 8.04654 1.15993 8.04654 1.41221V12.0327C8.04654 12.285 8.14995 12.5134 8.31585 12.6805C8.48176 12.8464 8.71132 12.9498 8.96359 12.9498H16.3102C16.5625 12.9498 16.7909 12.8464 16.9579 12.6805C17.1239 12.5145 17.2273 12.285 17.2273 12.0327L17.2284 4.7021V1.41221C17.2284 1.15994 17.125 0.93154 16.9591 0.764471C16.792 0.597425 16.5625 0.495154 16.3114 0.495154ZM13.4443 21.3178H17.3716C17.5818 21.3178 17.7727 21.2315 17.9114 21.0928C18.05 20.9542 18.1364 20.7633 18.1364 20.5531V19.0576H13.4443L13.4443 21.3178Z" fill="url(#paint0_linear_2985_35270)"/>
<defs>
<linearGradient id="paint0_linear_2985_35270" x1="2.17933e-07" y1="15.6189" x2="21.6889" y2="8.24232" gradientUnits="userSpaceOnUse">
<stop stop-color="#40C9FF"/>
<stop offset="1" stop-color="#E81CFF"/>
</linearGradient>
</defs>
</svg>
