<svg width="27" height="27" viewBox="0 0 27 27" fill="none" xmlns="http://www.w3.org/2000/svg">
<path d="M20.3872 16.1266C19.1542 16.6107 17.5519 17.1471 16.3997 17.4607C16.3485 17.4743 16.2622 17.4982 16.1599 17.5243C16.1599 17.4812 16.1576 17.438 16.1542 17.3937C16.1235 16.9732 15.861 15.9925 14.1076 15.9766C12.3894 15.9607 10.8474 15.8323 8.91662 15.6289C8.91208 15.6278 8.90867 15.6278 8.90412 15.6278C6.32231 15.4482 4.2906 17.313 2.58267 19.164C2.41335 19.0061 2.19404 18.9186 1.96108 18.9186C1.71677 18.9186 1.48836 19.0129 1.31678 19.1845L0.266771 20.2345C-0.0889236 20.5902 -0.0889236 21.1686 0.266771 21.5231L4.65775 25.9141C4.82934 26.0857 5.05889 26.18 5.30206 26.18C5.54638 26.18 5.77479 26.0857 5.94636 25.9141L6.99637 24.8641C7.33045 24.53 7.34977 23.9982 7.05433 23.6403C8.41796 22.6675 9.21569 22.6846 10.3826 22.7096C10.6406 22.7153 10.9076 22.721 11.2019 22.7164C11.3394 22.7141 11.4815 22.7175 11.6326 22.7198C12.369 22.7357 13.2849 22.7539 14.5372 22.1903L22.1485 18.7279C22.1519 18.7267 22.1542 18.7245 22.1576 18.7233C22.7087 18.4529 23.4542 18.0415 23.7872 17.7733C23.8349 17.7347 23.8724 17.6858 23.8951 17.629C24.1292 17.0654 24.0485 16.5051 23.6826 16.1324C23.3383 15.7813 22.4519 15.3143 20.3872 16.1256L20.3872 16.1266ZM6.48141 24.3495L5.4314 25.3995C5.36095 25.4699 5.24163 25.4699 5.17118 25.3995L0.780194 21.0085C0.709738 20.938 0.709738 20.8187 0.780194 20.7483L1.8302 19.6983C1.86543 19.663 1.91316 19.6448 1.95975 19.6448C2.00747 19.6448 2.05406 19.663 2.08929 19.6983L6.48027 24.0892C6.55073 24.1597 6.55073 24.279 6.48027 24.3495H6.48141ZM23.2552 17.2652C22.9746 17.4675 22.3961 17.7971 21.8427 18.0686L14.2369 21.5278C13.1346 22.0233 12.3437 22.0074 11.6471 21.9926C11.4892 21.9892 11.3403 21.987 11.1903 21.9881C10.9108 21.9926 10.6505 21.987 10.3983 21.9813C9.15166 21.954 8.1551 21.9335 6.53703 23.1153L3.09732 19.6756C4.75527 17.8745 6.57019 16.1949 8.84627 16.3505C10.7963 16.5551 12.3552 16.6858 14.0998 16.7017C14.9452 16.7096 15.393 16.9596 15.4282 17.446C15.4396 17.6028 15.4214 17.7392 15.3691 17.8608C15.3657 17.8676 15.3623 17.8755 15.36 17.8824C15.3237 17.9608 15.2725 18.0335 15.2066 18.1005C14.4544 18.8767 12.0997 18.7744 10.9692 18.7255C10.7806 18.7176 10.617 18.7108 10.4817 18.7074C10.2795 18.7039 10.1147 18.8619 10.1101 19.063C10.1056 19.2642 10.2647 19.4301 10.4658 19.4346C10.5931 19.4369 10.7522 19.4437 10.9374 19.4528C12.7817 19.5324 14.8237 19.5403 15.7284 18.6074C15.8125 18.521 15.8841 18.429 15.9432 18.3312C16.1932 18.2665 16.4761 18.1926 16.5898 18.1608C17.783 17.8369 19.3784 17.3028 20.6523 16.8017C22.0717 16.2437 22.8796 16.3528 23.1626 16.6403C23.3467 16.8278 23.3126 17.0846 23.2546 17.263L23.2552 17.2652ZM26.0825 11.438C26.0143 11.3642 25.9177 11.3233 25.8177 11.3233H25.5291L23.7871 8.09942H23.8973C24.0984 8.09942 24.2609 7.93692 24.2609 7.73578C24.2609 7.53464 24.0984 7.37214 23.8973 7.37214H20.6961V2.79149C20.6961 2.63353 20.595 2.49491 20.445 2.44603C18.7779 1.90398 16.9963 1.06989 14.8403 0.0357949C14.7403 -0.0119316 14.6256 -0.0119316 14.5256 0.0357949C12.3699 1.06989 10.5881 1.90512 8.92091 2.44603C8.77091 2.4949 8.66977 2.63467 8.66977 2.79149V7.37214H5.46861C5.26747 7.37214 5.10497 7.53464 5.10497 7.73578C5.10497 7.93692 5.26747 8.09942 5.46861 8.09942H5.57884L3.83679 11.3233H3.54815C3.44815 11.3233 3.35156 11.3653 3.28338 11.438C3.2152 11.5108 3.17883 11.6096 3.18565 11.7096C3.28906 13.3539 4.53224 14.6414 6.01747 14.6414C7.50271 14.6414 8.74588 13.3539 8.8493 11.7096C8.85612 11.6096 8.81975 11.5108 8.75157 11.438C8.68339 11.3642 8.5868 11.3233 8.4868 11.3233H8.19816L6.45611 8.09942H8.67202V9.31533C8.67202 10.0756 8.85725 10.7562 9.23793 11.396C10.1277 12.8937 12.0891 14.0574 13.8209 15.0847C14.0527 15.2222 14.2789 15.3563 14.497 15.4881C14.555 15.5234 14.6198 15.5404 14.6857 15.5404C14.7505 15.5404 14.8164 15.5234 14.8743 15.4881C15.0914 15.3563 15.3186 15.2222 15.5504 15.0847C17.2811 14.0575 19.2435 12.8938 20.1334 11.396C20.5141 10.7551 20.6993 10.0744 20.6993 9.31533V8.09942H22.9152L21.1732 11.3233H20.8846C20.7846 11.3233 20.688 11.3653 20.6198 11.438C20.5516 11.5108 20.5152 11.6096 20.5221 11.7096C20.6255 13.3539 21.8686 14.6414 23.3539 14.6414C24.8391 14.6414 26.0823 13.3539 26.1857 11.7096C26.1925 11.6096 26.1562 11.5108 26.088 11.438H26.0825ZM6.01764 13.9142C5.03129 13.9142 4.18695 13.1221 3.96423 12.0506H8.071C7.84827 13.1221 7.004 13.9142 6.01764 13.9142ZM7.3699 11.3233H4.66422L6.01648 8.81986L7.36874 11.3233H7.3699ZM19.9689 9.3142C19.9689 9.93919 19.8178 10.4983 19.5052 11.0244C18.7109 12.3619 16.8336 13.4756 15.1768 14.4586C15.0098 14.5586 14.8439 14.6563 14.6836 14.7518C14.5223 14.6552 14.3586 14.5575 14.1904 14.4586C12.5336 13.4757 10.6565 12.3632 9.86201 11.0244C9.55065 10.4994 9.39835 9.94033 9.39835 9.3142V3.05297C10.9927 2.51205 12.6789 1.72683 14.6836 0.765462C16.6881 1.72683 18.3746 2.51205 19.9688 3.05297L19.9689 9.3142ZM23.3495 8.81876L24.7018 11.3222H21.9961L23.3484 8.81876H23.3495ZM23.3495 13.9132C22.3632 13.9132 21.5189 13.1211 21.2961 12.0495H25.4029C25.1802 13.1211 24.3359 13.9132 23.3495 13.9132ZM12.4006 5.13934C12.4006 5.87115 12.7472 6.52343 13.2847 6.94161C12.7245 7.13252 12.2052 7.43932 11.7608 7.84729C10.9665 8.57684 10.4767 9.56776 10.3801 10.6382C10.379 10.6484 10.379 10.6598 10.379 10.6712V11.1303C10.379 11.3314 10.5415 11.4939 10.7426 11.4939C10.9438 11.4939 11.1063 11.3314 11.1063 11.1303V10.6871C11.2813 8.83254 12.8165 7.43588 14.6848 7.43588C16.5518 7.43588 18.0869 8.83248 18.2632 10.6871V11.1303C18.2632 11.3314 18.4257 11.4939 18.6269 11.4939C18.828 11.4939 18.9905 11.3314 18.9905 11.1303V10.6712C18.9905 10.6609 18.9894 10.6496 18.9894 10.6382C18.8928 9.56776 18.403 8.57687 17.6087 7.84729C17.1644 7.43822 16.645 7.13253 16.0848 6.94161C16.6223 6.52343 16.9689 5.87115 16.9689 5.13934C16.9689 3.88025 15.9451 2.85637 14.6859 2.85637C13.4268 2.85637 12.403 3.88023 12.403 5.13934H12.4006ZM16.2391 5.13934C16.2391 5.99729 15.5414 6.69503 14.6834 6.69503C13.8255 6.69503 13.1278 5.99732 13.1278 5.13934C13.1278 4.28136 13.8255 3.58364 14.6834 3.58364C15.5414 3.58364 16.2391 4.28136 16.2391 5.13934ZM16.7789 9.34501C16.921 9.48706 16.921 9.71772 16.7789 9.85977L14.2346 12.4041C14.1664 12.4723 14.0732 12.5109 13.9778 12.5109C13.9698 12.5109 13.9619 12.5109 13.9528 12.5098C13.8482 12.503 13.7516 12.4507 13.688 12.3677L12.5551 10.8791C12.4335 10.7189 12.4642 10.4905 12.6244 10.3689C12.7846 10.2473 13.0119 10.278 13.1346 10.4382L14.0153 11.5961L16.2653 9.34614C16.4073 9.20409 16.638 9.20409 16.7801 9.34614L16.7789 9.34501Z" fill="url(#paint0_linear_2986_35698)"/>
<defs>
<linearGradient id="paint0_linear_2986_35698" x1="2.35845e-07" y1="16.8677" x2="23.4614" y2="8.8717" gradientUnits="userSpaceOnUse">
<stop stop-color="#40C9FF"/>
<stop offset="1" stop-color="#E81CFF"/>
</linearGradient>
</defs>
</svg>
